<mxfile host="app.diagrams.net" modified="2021-06-07T05:45:19.017Z" agent="5.0 (Macintosh; Intel Mac OS X 10_15_7) AppleWebKit/537.36 (KHTML, like Gecko) Chrome/91.0.4472.77 Safari/537.36" etag="22j_qRRcOQ1bhi7vso6J" version="14.7.5" type="github">
  <diagram id="nuQsLSKCX1yVviRM6mYH" name="Page-1">
    <mxGraphModel dx="1901" dy="841" grid="1" gridSize="10" guides="1" tooltips="1" connect="1" arrows="1" fold="1" page="1" pageScale="1" pageWidth="850" pageHeight="1100" math="0" shadow="0">
      <root>
        <mxCell id="0" />
        <mxCell id="1" parent="0" />
        <mxCell id="ITm9v_sGWqswMa6FpneH-1" value="方案1" style="text;html=1;strokeColor=none;fillColor=none;align=center;verticalAlign=middle;whiteSpace=wrap;rounded=0;" parent="1" vertex="1">
          <mxGeometry x="60" y="110" width="40" height="20" as="geometry" />
        </mxCell>
        <mxCell id="ITm9v_sGWqswMa6FpneH-2" value="参保人列表" style="rounded=0;whiteSpace=wrap;html=1;" parent="1" vertex="1">
          <mxGeometry x="70" y="160" width="120" height="20" as="geometry" />
        </mxCell>
        <mxCell id="ITm9v_sGWqswMa6FpneH-3" value="" style="rounded=0;whiteSpace=wrap;html=1;" parent="1" vertex="1">
          <mxGeometry x="70" y="180" width="120" height="20" as="geometry" />
        </mxCell>
        <mxCell id="ITm9v_sGWqswMa6FpneH-4" value="" style="rounded=0;whiteSpace=wrap;html=1;" parent="1" vertex="1">
          <mxGeometry x="70" y="200" width="120" height="20" as="geometry" />
        </mxCell>
        <mxCell id="ITm9v_sGWqswMa6FpneH-5" value="&lt;div style=&quot;text-align: left&quot;&gt;&lt;span&gt;参保人&lt;/span&gt;&lt;/div&gt;&lt;blockquote style=&quot;margin: 0 0 0 40px ; border: none ; padding: 0px&quot;&gt;&lt;span&gt;&lt;div style=&quot;text-align: left&quot;&gt;&lt;span&gt;赔案&lt;/span&gt;&lt;/div&gt;&lt;/span&gt;&lt;/blockquote&gt;&lt;blockquote style=&quot;margin: 0 0 0 40px ; border: none ; padding: 0px&quot;&gt;&lt;blockquote style=&quot;margin: 0 0 0 40px ; border: none ; padding: 0px&quot;&gt;&lt;span&gt;&lt;div style=&quot;text-align: left&quot;&gt;&lt;span&gt;就诊&lt;/span&gt;&lt;/div&gt;&lt;/span&gt;&lt;/blockquote&gt;&lt;/blockquote&gt;&lt;blockquote style=&quot;margin: 0 0 0 40px ; border: none ; padding: 0px&quot;&gt;&lt;blockquote style=&quot;margin: 0 0 0 40px ; border: none ; padding: 0px&quot;&gt;&lt;blockquote style=&quot;margin: 0 0 0 40px ; border: none ; padding: 0px&quot;&gt;&lt;span&gt;&lt;div style=&quot;text-align: left&quot;&gt;明细&lt;/div&gt;&lt;/span&gt;&lt;/blockquote&gt;&lt;/blockquote&gt;&lt;/blockquote&gt;" style="rounded=0;whiteSpace=wrap;html=1;" parent="1" vertex="1">
          <mxGeometry x="240" y="160" width="210" height="60" as="geometry" />
        </mxCell>
        <mxCell id="ITm9v_sGWqswMa6FpneH-6" value="" style="endArrow=classic;html=1;exitX=1;exitY=0.5;exitDx=0;exitDy=0;entryX=0;entryY=0.5;entryDx=0;entryDy=0;" parent="1" source="ITm9v_sGWqswMa6FpneH-3" target="ITm9v_sGWqswMa6FpneH-5" edge="1">
          <mxGeometry width="50" height="50" relative="1" as="geometry">
            <mxPoint x="380" y="440" as="sourcePoint" />
            <mxPoint x="430" y="390" as="targetPoint" />
          </mxGeometry>
        </mxCell>
        <mxCell id="ITm9v_sGWqswMa6FpneH-9" value="&lt;div style=&quot;text-align: left&quot;&gt;&lt;span&gt;参保人(Context)&lt;/span&gt;&lt;/div&gt;&lt;blockquote style=&quot;margin: 0 0 0 40px ; border: none ; padding: 0px&quot;&gt;&lt;span&gt;&lt;div style=&quot;text-align: left&quot;&gt;&lt;span&gt;赔案(Context)&lt;/span&gt;&lt;/div&gt;&lt;/span&gt;&lt;/blockquote&gt;&lt;blockquote style=&quot;margin: 0 0 0 40px ; border: none ; padding: 0px&quot;&gt;&lt;blockquote style=&quot;margin: 0 0 0 40px ; border: none ; padding: 0px&quot;&gt;&lt;span&gt;&lt;div style=&quot;text-align: left&quot;&gt;&lt;span&gt;就诊/住院(Target)&lt;/span&gt;&lt;/div&gt;&lt;/span&gt;&lt;/blockquote&gt;&lt;/blockquote&gt;&lt;blockquote style=&quot;margin: 0 0 0 40px ; border: none ; padding: 0px&quot;&gt;&lt;blockquote style=&quot;margin: 0 0 0 40px ; border: none ; padding: 0px&quot;&gt;&lt;blockquote style=&quot;margin: 0 0 0 40px ; border: none ; padding: 0px&quot;&gt;&lt;span&gt;&lt;div style=&quot;text-align: left&quot;&gt;明细(Context)&lt;/div&gt;&lt;/span&gt;&lt;/blockquote&gt;&lt;/blockquote&gt;&lt;/blockquote&gt;&lt;blockquote style=&quot;margin: 0 0 0 40px ; border: none ; padding: 0px&quot;&gt;&lt;blockquote style=&quot;margin: 0 0 0 40px ; border: none ; padding: 0px&quot;&gt;&lt;div style=&quot;text-align: left&quot;&gt;&lt;span&gt;就诊/门诊(Context)&lt;/span&gt;&lt;/div&gt;&lt;/blockquote&gt;&lt;/blockquote&gt;" style="rounded=0;whiteSpace=wrap;html=1;" parent="1" vertex="1">
          <mxGeometry x="510" y="160" width="210" height="90" as="geometry" />
        </mxCell>
        <mxCell id="ITm9v_sGWqswMa6FpneH-11" value="选定目标任务: 异常住院" style="text;html=1;strokeColor=none;fillColor=none;align=left;verticalAlign=middle;whiteSpace=wrap;rounded=0;" parent="1" vertex="1">
          <mxGeometry x="510" y="110" width="170" height="20" as="geometry" />
        </mxCell>
        <mxCell id="ITm9v_sGWqswMa6FpneH-12" value="选定上下文视图: ancestor+descendant+siblings(current level)" style="text;html=1;strokeColor=none;fillColor=none;align=left;verticalAlign=middle;whiteSpace=wrap;rounded=0;" parent="1" vertex="1">
          <mxGeometry x="510" y="130" width="360" height="20" as="geometry" />
        </mxCell>
        <mxCell id="ITm9v_sGWqswMa6FpneH-13" value="" style="edgeStyle=elbowEdgeStyle;elbow=horizontal;endArrow=classic;html=1;entryX=0;entryY=0.5;entryDx=0;entryDy=0;exitX=1;exitY=0.5;exitDx=0;exitDy=0;" parent="1" source="ITm9v_sGWqswMa6FpneH-5" target="ITm9v_sGWqswMa6FpneH-9" edge="1">
          <mxGeometry width="50" height="50" relative="1" as="geometry">
            <mxPoint x="410" y="180" as="sourcePoint" />
            <mxPoint x="460" y="130" as="targetPoint" />
          </mxGeometry>
        </mxCell>
        <mxCell id="ITm9v_sGWqswMa6FpneH-14" value="标注target data point" style="shape=ext;double=1;rounded=1;whiteSpace=wrap;html=1;align=center;" parent="1" vertex="1">
          <mxGeometry x="770" y="160" width="120" height="40" as="geometry" />
        </mxCell>
        <mxCell id="ITm9v_sGWqswMa6FpneH-15" value="方案2" style="text;html=1;strokeColor=none;fillColor=none;align=center;verticalAlign=middle;whiteSpace=wrap;rounded=0;" parent="1" vertex="1">
          <mxGeometry x="60" y="540" width="40" height="20" as="geometry" />
        </mxCell>
        <mxCell id="ITm9v_sGWqswMa6FpneH-16" value="选定目标任务: 异常住院" style="text;html=1;strokeColor=none;fillColor=none;align=left;verticalAlign=middle;whiteSpace=wrap;rounded=0;" parent="1" vertex="1">
          <mxGeometry x="70" y="580" width="170" height="20" as="geometry" />
        </mxCell>
        <mxCell id="ITm9v_sGWqswMa6FpneH-18" value="任务对应数据列表" style="rounded=0;whiteSpace=wrap;html=1;" parent="1" vertex="1">
          <mxGeometry x="70" y="620" width="120" height="20" as="geometry" />
        </mxCell>
        <mxCell id="ITm9v_sGWqswMa6FpneH-19" value="Target+Context" style="rounded=0;whiteSpace=wrap;html=1;" parent="1" vertex="1">
          <mxGeometry x="70" y="640" width="120" height="20" as="geometry" />
        </mxCell>
        <mxCell id="ITm9v_sGWqswMa6FpneH-20" value="" style="rounded=0;whiteSpace=wrap;html=1;" parent="1" vertex="1">
          <mxGeometry x="70" y="660" width="120" height="20" as="geometry" />
        </mxCell>
        <mxCell id="ITm9v_sGWqswMa6FpneH-21" value="Target View" style="rounded=0;whiteSpace=wrap;html=1;align=center;" parent="1" vertex="1">
          <mxGeometry x="240" y="620" width="120" height="60" as="geometry" />
        </mxCell>
        <mxCell id="ITm9v_sGWqswMa6FpneH-22" value="Context View" style="rounded=0;whiteSpace=wrap;html=1;align=center;" parent="1" vertex="1">
          <mxGeometry x="400" y="620" width="120" height="60" as="geometry" />
        </mxCell>
        <mxCell id="ITm9v_sGWqswMa6FpneH-23" value="" style="shape=cross;whiteSpace=wrap;html=1;align=left;labelBackgroundColor=#000000;labelBorderColor=#000000;fillColor=#000000;" parent="1" vertex="1">
          <mxGeometry x="366" y="635" width="30" height="30" as="geometry" />
        </mxCell>
        <mxCell id="ITm9v_sGWqswMa6FpneH-27" value="" style="edgeStyle=elbowEdgeStyle;elbow=horizontal;endArrow=classic;html=1;exitX=0;exitY=0.5;exitDx=0;exitDy=0;" parent="1" source="ITm9v_sGWqswMa6FpneH-14" target="ITm9v_sGWqswMa6FpneH-9" edge="1">
          <mxGeometry width="50" height="50" relative="1" as="geometry">
            <mxPoint x="410" y="360" as="sourcePoint" />
            <mxPoint x="460" y="310" as="targetPoint" />
          </mxGeometry>
        </mxCell>
        <mxCell id="ITm9v_sGWqswMa6FpneH-29" value="Label View" style="rounded=0;whiteSpace=wrap;html=1;align=center;" parent="1" vertex="1">
          <mxGeometry x="560" y="620" width="120" height="60" as="geometry" />
        </mxCell>
        <mxCell id="ITm9v_sGWqswMa6FpneH-31" value="" style="shape=cross;whiteSpace=wrap;html=1;align=left;labelBackgroundColor=#000000;labelBorderColor=#000000;fillColor=#000000;" parent="1" vertex="1">
          <mxGeometry x="525" y="635" width="30" height="30" as="geometry" />
        </mxCell>
        <mxCell id="ITm9v_sGWqswMa6FpneH-32" value="&lt;ol&gt;&lt;li&gt;Pros&lt;/li&gt;&lt;ol&gt;&lt;li&gt;数据结构相对简单，不做数据融合的情况下，对应操作简单&lt;/li&gt;&lt;li&gt;数据粒度清晰，方便做sampling&lt;/li&gt;&lt;/ol&gt;&lt;li&gt;Cons&lt;/li&gt;&lt;ol&gt;&lt;li&gt;冗余上下文，一个person可能在低层级的task上重复出现多次&lt;/li&gt;&lt;li&gt;数据融合的时候会比较复杂&lt;/li&gt;&lt;/ol&gt;&lt;/ol&gt;" style="text;html=1;strokeColor=none;fillColor=none;align=left;verticalAlign=middle;whiteSpace=wrap;rounded=0;labelBackgroundColor=none;" parent="1" vertex="1">
          <mxGeometry x="60" y="710" width="420" height="200" as="geometry" />
        </mxCell>
        <mxCell id="ITm9v_sGWqswMa6FpneH-33" value="&lt;ol&gt;&lt;li&gt;Pros&lt;/li&gt;&lt;ol&gt;&lt;li&gt;统一的数据结构，全明细操作一览无余&lt;/li&gt;&lt;li&gt;可以同时进行不同粒度，不同任务的标注&lt;/li&gt;&lt;li&gt;标注的交互设计，数据视图(不用视图过滤，冗余信息太多)设计比较复杂&lt;/li&gt;&lt;/ol&gt;&lt;li&gt;Cons&lt;/li&gt;&lt;ol&gt;&lt;li&gt;数据结构上限定死在person层级，不能支持类似graph的任务&lt;/li&gt;&lt;li&gt;不方便做sampling&lt;/li&gt;&lt;/ol&gt;&lt;/ol&gt;" style="text;html=1;strokeColor=none;fillColor=none;align=left;verticalAlign=middle;whiteSpace=wrap;rounded=0;labelBackgroundColor=none;" parent="1" vertex="1">
          <mxGeometry x="60" y="300" width="490" height="200" as="geometry" />
        </mxCell>
        <mxCell id="ITm9v_sGWqswMa6FpneH-34" value="数据层" style="rounded=0;whiteSpace=wrap;html=1;labelBackgroundColor=none;align=center;" parent="1" vertex="1">
          <mxGeometry x="70" y="973" width="120" height="60" as="geometry" />
        </mxCell>
        <mxCell id="ITm9v_sGWqswMa6FpneH-35" value="标注" style="rounded=0;whiteSpace=wrap;html=1;labelBackgroundColor=none;align=center;" parent="1" vertex="1">
          <mxGeometry x="320" y="973" width="140" height="60" as="geometry" />
        </mxCell>
        <mxCell id="ITm9v_sGWqswMa6FpneH-36" value="AI" style="rounded=0;whiteSpace=wrap;html=1;labelBackgroundColor=none;align=center;" parent="1" vertex="1">
          <mxGeometry x="550" y="973" width="45" height="60" as="geometry" />
        </mxCell>
        <mxCell id="ITm9v_sGWqswMa6FpneH-37" value="Classifier Pool/Storage" style="rounded=0;whiteSpace=wrap;html=1;labelBackgroundColor=none;align=center;" parent="1" vertex="1">
          <mxGeometry x="700" y="973" width="120" height="60" as="geometry" />
        </mxCell>
        <mxCell id="ITm9v_sGWqswMa6FpneH-38" value="Graph" style="rounded=0;whiteSpace=wrap;html=1;labelBackgroundColor=none;align=center;" parent="1" vertex="1">
          <mxGeometry x="70" y="1103" width="50" height="60" as="geometry" />
        </mxCell>
        <mxCell id="ITm9v_sGWqswMa6FpneH-39" value="MySQL" style="rounded=0;whiteSpace=wrap;html=1;labelBackgroundColor=none;align=center;" parent="1" vertex="1">
          <mxGeometry x="140" y="1103" width="50" height="60" as="geometry" />
        </mxCell>
        <mxCell id="ITm9v_sGWqswMa6FpneH-40" value="Data" style="rounded=0;whiteSpace=wrap;html=1;labelBackgroundColor=none;align=center;fillColor=none;" parent="1" vertex="1">
          <mxGeometry x="70" y="1043" width="60" height="27" as="geometry" />
        </mxCell>
        <mxCell id="ITm9v_sGWqswMa6FpneH-41" value="Label" style="rounded=0;whiteSpace=wrap;html=1;labelBackgroundColor=none;align=center;fillColor=none;" parent="1" vertex="1">
          <mxGeometry x="70" y="1070" width="60" height="23" as="geometry" />
        </mxCell>
        <mxCell id="ITm9v_sGWqswMa6FpneH-42" value="Task" style="rounded=0;whiteSpace=wrap;html=1;labelBackgroundColor=none;align=center;fillColor=none;fontStyle=0" parent="1" vertex="1">
          <mxGeometry x="320" y="1033" width="140" height="20" as="geometry" />
        </mxCell>
        <mxCell id="ITm9v_sGWqswMa6FpneH-43" value="User" style="rounded=0;whiteSpace=wrap;html=1;labelBackgroundColor=none;align=center;fillColor=none;" parent="1" vertex="1">
          <mxGeometry x="390" y="1113" width="70" height="17" as="geometry" />
        </mxCell>
        <mxCell id="ITm9v_sGWqswMa6FpneH-44" value="Filter&lt;br&gt;View" style="rounded=0;whiteSpace=wrap;html=1;labelBackgroundColor=none;align=center;fillColor=none;" parent="1" vertex="1">
          <mxGeometry x="280" y="973" width="30" height="60" as="geometry" />
        </mxCell>
        <mxCell id="ITm9v_sGWqswMa6FpneH-45" value="Filter&lt;br&gt;View" style="rounded=0;whiteSpace=wrap;html=1;labelBackgroundColor=none;align=center;fillColor=none;" parent="1" vertex="1">
          <mxGeometry x="470" y="973" width="30" height="60" as="geometry" />
        </mxCell>
        <mxCell id="ITm9v_sGWqswMa6FpneH-46" value="Label" style="rounded=0;whiteSpace=wrap;html=1;labelBackgroundColor=none;align=center;fillColor=none;" parent="1" vertex="1">
          <mxGeometry x="320" y="1053" width="40" height="17" as="geometry" />
        </mxCell>
        <mxCell id="ITm9v_sGWqswMa6FpneH-47" value="TimeStamp" style="rounded=0;whiteSpace=wrap;html=1;labelBackgroundColor=none;align=center;fillColor=none;" parent="1" vertex="1">
          <mxGeometry x="320" y="1113" width="70" height="17" as="geometry" />
        </mxCell>
        <mxCell id="ITm9v_sGWqswMa6FpneH-48" value="BI" style="rounded=0;whiteSpace=wrap;html=1;labelBackgroundColor=none;align=center;" parent="1" vertex="1">
          <mxGeometry x="320" y="1213" width="140" height="60" as="geometry" />
        </mxCell>
        <mxCell id="ITm9v_sGWqswMa6FpneH-49" value="ML" style="rounded=0;whiteSpace=wrap;html=1;labelBackgroundColor=none;align=center;fillColor=none;" parent="1" vertex="1">
          <mxGeometry x="605" y="973" width="55" height="20" as="geometry" />
        </mxCell>
        <mxCell id="ITm9v_sGWqswMa6FpneH-50" value="AL" style="rounded=0;whiteSpace=wrap;html=1;labelBackgroundColor=none;align=center;fillColor=none;" parent="1" vertex="1">
          <mxGeometry x="605" y="993" width="55" height="20" as="geometry" />
        </mxCell>
        <mxCell id="ITm9v_sGWqswMa6FpneH-51" value="Rule" style="rounded=0;whiteSpace=wrap;html=1;labelBackgroundColor=none;align=center;fillColor=none;" parent="1" vertex="1">
          <mxGeometry x="605" y="1013" width="55" height="20" as="geometry" />
        </mxCell>
        <mxCell id="ITm9v_sGWqswMa6FpneH-52" value="Statistics" style="rounded=0;whiteSpace=wrap;html=1;labelBackgroundColor=none;align=center;fillColor=none;" parent="1" vertex="1">
          <mxGeometry x="320" y="1283" width="70" height="37" as="geometry" />
        </mxCell>
        <mxCell id="ITm9v_sGWqswMa6FpneH-53" value="AI" style="rounded=0;whiteSpace=wrap;html=1;labelBackgroundColor=none;align=center;fillColor=none;" parent="1" vertex="1">
          <mxGeometry x="400" y="1283" width="60" height="37" as="geometry" />
        </mxCell>
        <mxCell id="ITm9v_sGWqswMa6FpneH-58" value="" style="endArrow=classic;startArrow=classic;html=1;entryX=0;entryY=0.5;entryDx=0;entryDy=0;entryPerimeter=0;exitX=1;exitY=0.5;exitDx=0;exitDy=0;" parent="1" source="ITm9v_sGWqswMa6FpneH-45" target="ITm9v_sGWqswMa6FpneH-36" edge="1">
          <mxGeometry width="50" height="50" relative="1" as="geometry">
            <mxPoint x="440" y="1113" as="sourcePoint" />
            <mxPoint x="490" y="1063" as="targetPoint" />
          </mxGeometry>
        </mxCell>
        <mxCell id="ITm9v_sGWqswMa6FpneH-66" value="单体风险" style="rounded=1;whiteSpace=wrap;html=1;labelBackgroundColor=none;fillColor=none;align=center;" parent="1" vertex="1">
          <mxGeometry x="110" y="1390" width="120" height="30" as="geometry" />
        </mxCell>
        <mxCell id="ITm9v_sGWqswMa6FpneH-67" value="pair风险" style="rounded=1;whiteSpace=wrap;html=1;labelBackgroundColor=none;fillColor=none;align=center;" parent="1" vertex="1">
          <mxGeometry x="110" y="1470" width="120" height="30" as="geometry" />
        </mxCell>
        <mxCell id="ITm9v_sGWqswMa6FpneH-68" value="群体风险" style="rounded=1;whiteSpace=wrap;html=1;labelBackgroundColor=none;fillColor=none;align=center;" parent="1" vertex="1">
          <mxGeometry x="110" y="1550" width="120" height="30" as="geometry" />
        </mxCell>
        <mxCell id="ITm9v_sGWqswMa6FpneH-69" value="&lt;ol&gt;&lt;li&gt;以目标层为中心建立数据视图&lt;/li&gt;&lt;li&gt;给出预定义上下文+手动展开上下文&lt;/li&gt;&lt;li&gt;可选树形结构+面板列表展示数据细节/特征/标注界面&lt;/li&gt;&lt;li&gt;图界面neo4j或者类似前端工具,直接以图+面板的形式展示数据&lt;/li&gt;&lt;/ol&gt;" style="text;html=1;fillColor=none;align=left;verticalAlign=middle;whiteSpace=wrap;rounded=0;labelBackgroundColor=none;strokeColor=#000000;" parent="1" vertex="1">
          <mxGeometry x="280" y="1372.5" width="280" height="87.5" as="geometry" />
        </mxCell>
        <mxCell id="ITm9v_sGWqswMa6FpneH-70" value="" style="endArrow=classic;html=1;exitX=0;exitY=1;exitDx=0;exitDy=0;entryX=0;entryY=0;entryDx=0;entryDy=0;" parent="1" source="ITm9v_sGWqswMa6FpneH-44" target="ITm9v_sGWqswMa6FpneH-69" edge="1">
          <mxGeometry width="50" height="50" relative="1" as="geometry">
            <mxPoint x="420" y="1350" as="sourcePoint" />
            <mxPoint x="288" y="1380" as="targetPoint" />
          </mxGeometry>
        </mxCell>
        <mxCell id="ITm9v_sGWqswMa6FpneH-71" value="&lt;ol&gt;&lt;li&gt;批量预标注&lt;/li&gt;&lt;li&gt;增量训练/全量训练，通过timestamp由AI部分自行决定或者在标注里面配置&lt;/li&gt;&lt;li&gt;数据字段，参考label-studio，用confidence+filter来实现active learning的动态选择&lt;/li&gt;&lt;/ol&gt;" style="text;html=1;fillColor=none;align=left;verticalAlign=middle;whiteSpace=wrap;rounded=0;labelBackgroundColor=none;strokeColor=#000000;" parent="1" vertex="1">
          <mxGeometry x="740" y="1372.5" width="280" height="97.5" as="geometry" />
        </mxCell>
        <mxCell id="ITm9v_sGWqswMa6FpneH-72" value="" style="edgeStyle=elbowEdgeStyle;elbow=vertical;endArrow=classic;html=1;exitX=0.5;exitY=1;exitDx=0;exitDy=0;" parent="1" source="ITm9v_sGWqswMa6FpneH-45" target="ITm9v_sGWqswMa6FpneH-71" edge="1">
          <mxGeometry width="50" height="50" relative="1" as="geometry">
            <mxPoint x="420" y="1350" as="sourcePoint" />
            <mxPoint x="470" y="1300" as="targetPoint" />
          </mxGeometry>
        </mxCell>
        <mxCell id="ITm9v_sGWqswMa6FpneH-73" value="&lt;ol&gt;&lt;li&gt;存储形式 edge?&lt;/li&gt;&lt;li&gt;建模形式 recommendation？&lt;/li&gt;&lt;/ol&gt;" style="text;html=1;fillColor=none;align=left;verticalAlign=middle;whiteSpace=wrap;rounded=0;labelBackgroundColor=none;strokeColor=#000000;dashed=1;" parent="1" vertex="1">
          <mxGeometry x="280" y="1470" width="280" height="65" as="geometry" />
        </mxCell>
        <mxCell id="ITm9v_sGWqswMa6FpneH-74" value="&lt;ol&gt;&lt;li&gt;存储形式 ?group label into every nodes?&lt;/li&gt;&lt;/ol&gt;" style="text;html=1;fillColor=none;align=left;verticalAlign=middle;whiteSpace=wrap;rounded=0;labelBackgroundColor=none;strokeColor=#000000;dashed=1;" parent="1" vertex="1">
          <mxGeometry x="280" y="1550" width="280" height="65" as="geometry" />
        </mxCell>
        <mxCell id="ITm9v_sGWqswMa6FpneH-76" value="脑暴" style="shape=ext;double=1;rounded=1;whiteSpace=wrap;html=1;dashed=1;labelBackgroundColor=none;strokeColor=#000000;fillColor=none;align=center;" parent="1" vertex="1">
          <mxGeometry x="60" y="1650" width="120" height="30" as="geometry" />
        </mxCell>
        <mxCell id="ITm9v_sGWqswMa6FpneH-77" value="&lt;ol&gt;&lt;li&gt;标注界面的部分视图标准化，和BI共用&lt;/li&gt;&lt;li&gt;视图可配置&lt;br&gt;&lt;/li&gt;&lt;li&gt;BI对数据层进行修改，打标签&lt;/li&gt;&lt;li&gt;AI部分通过视图透视实现不同层级数据质量的适配(有明细 vs 无明细)&lt;/li&gt;&lt;li&gt;融入对码体系&lt;/li&gt;&lt;li&gt;融入其它原始数据，多模态&lt;/li&gt;&lt;/ol&gt;" style="text;html=1;fillColor=none;align=left;verticalAlign=middle;whiteSpace=wrap;rounded=0;labelBackgroundColor=none;strokeColor=#000000;dashed=1;" parent="1" vertex="1">
          <mxGeometry x="60" y="1700" width="450" height="100" as="geometry" />
        </mxCell>
        <mxCell id="ITm9v_sGWqswMa6FpneH-78" value="1. 本地文件+时间戳&lt;br&gt;2. &lt;strike&gt;wandb&lt;/strike&gt;" style="text;html=1;strokeColor=none;fillColor=none;align=left;verticalAlign=middle;whiteSpace=wrap;rounded=0;dashed=1;labelBackgroundColor=none;" parent="1" vertex="1">
          <mxGeometry x="700" y="1043" width="120" height="37" as="geometry" />
        </mxCell>
        <mxCell id="ITm9v_sGWqswMa6FpneH-79" value="ML URL" style="rounded=0;whiteSpace=wrap;html=1;labelBackgroundColor=none;align=center;fillColor=none;" parent="1" vertex="1">
          <mxGeometry x="360" y="1053" width="60" height="17" as="geometry" />
        </mxCell>
        <mxCell id="ITm9v_sGWqswMa6FpneH-80" value="&lt;b&gt;数据导入&lt;/b&gt;" style="rounded=0;whiteSpace=wrap;html=1;labelBackgroundColor=none;align=center;fillColor=none;" parent="1" vertex="1">
          <mxGeometry x="320" y="1090" width="50" height="23" as="geometry" />
        </mxCell>
        <mxCell id="ITm9v_sGWqswMa6FpneH-81" value="&lt;b&gt;数据导入&lt;/b&gt;" style="rounded=0;whiteSpace=wrap;html=1;labelBackgroundColor=none;align=center;fillColor=none;" parent="1" vertex="1">
          <mxGeometry x="130" y="1043" width="60" height="50" as="geometry" />
        </mxCell>
        <mxCell id="ITm9v_sGWqswMa6FpneH-82" value="data management" style="rounded=0;whiteSpace=wrap;html=1;labelBackgroundColor=none;align=center;fillColor=none;" parent="1" vertex="1">
          <mxGeometry x="320" y="1070" width="140" height="20" as="geometry" />
        </mxCell>
        <mxCell id="ITm9v_sGWqswMa6FpneH-83" value="&lt;span&gt;分配/选择/回顾&lt;/span&gt;" style="rounded=0;whiteSpace=wrap;html=1;labelBackgroundColor=none;align=center;fillColor=none;fontStyle=0" parent="1" vertex="1">
          <mxGeometry x="370" y="1090" width="90" height="23" as="geometry" />
        </mxCell>
        <mxCell id="ITm9v_sGWqswMa6FpneH-84" value="data" style="rounded=0;whiteSpace=wrap;html=1;labelBackgroundColor=none;align=center;fillColor=none;" parent="1" vertex="1">
          <mxGeometry x="420" y="1053" width="40" height="17" as="geometry" />
        </mxCell>
        <mxCell id="VJiu-uASlvxJ1oCcI06f-7" value="List" style="swimlane;fontStyle=0;childLayout=stackLayout;horizontal=1;startSize=26;fillColor=none;horizontalStack=0;resizeParent=1;resizeParentMax=0;resizeLast=0;collapsible=1;marginBottom=0;" vertex="1" parent="1">
          <mxGeometry x="1020" y="973" width="460" height="104" as="geometry" />
        </mxCell>
        <mxCell id="VJiu-uASlvxJ1oCcI06f-8" value="方案1: dash/plotly + streamlit, 复用性，多用户，任务分配" style="text;strokeColor=none;fillColor=none;align=left;verticalAlign=top;spacingLeft=4;spacingRight=4;overflow=hidden;rotatable=0;points=[[0,0.5],[1,0.5]];portConstraint=eastwest;" vertex="1" parent="VJiu-uASlvxJ1oCcI06f-7">
          <mxGeometry y="26" width="460" height="26" as="geometry" />
        </mxCell>
        <mxCell id="VJiu-uASlvxJ1oCcI06f-9" value="方案2: 标准前端，tree view + echart + 标注系统(Java后端) +ML(python后端)" style="text;strokeColor=none;fillColor=none;align=left;verticalAlign=top;spacingLeft=4;spacingRight=4;overflow=hidden;rotatable=0;points=[[0,0.5],[1,0.5]];portConstraint=eastwest;" vertex="1" parent="VJiu-uASlvxJ1oCcI06f-7">
          <mxGeometry y="52" width="460" height="26" as="geometry" />
        </mxCell>
        <mxCell id="VJiu-uASlvxJ1oCcI06f-10" value="方案3: 定制label-studio，tree view + echart +ML(python后端)" style="text;strokeColor=none;fillColor=none;align=left;verticalAlign=top;spacingLeft=4;spacingRight=4;overflow=hidden;rotatable=0;points=[[0,0.5],[1,0.5]];portConstraint=eastwest;" vertex="1" parent="VJiu-uASlvxJ1oCcI06f-7">
          <mxGeometry y="78" width="460" height="26" as="geometry" />
        </mxCell>
      </root>
    </mxGraphModel>
  </diagram>
</mxfile>
